#N canvas 837 353 450 300 10;
#X obj 25 21 inlet;
#X obj 25 210 outlet;
#X obj 74 22 inlet;
#X obj 142 259 outlet;
#X obj 142 206 list prepend set;
#X obj 142 232 list trim;
#X obj 25 156 receive \$1;
#X obj 27 127 send;
#X obj 93 68 loadbang;
#X obj 93 90 symbol \$1;
#X obj 26 57 t a a b;
#X connect 0 0 10 0;
#X connect 2 0 10 0;
#X connect 4 0 5 0;
#X connect 5 0 3 0;
#X connect 6 0 1 0;
#X connect 6 0 4 0;
#X connect 8 0 9 0;
#X connect 9 0 7 1;
#X connect 10 0 7 0;
