#N canvas 735 180 448 451 10;
#X obj 36 52 inlet;
#X msg 36 101 seed \$1;
#X obj 96 173 urn \$1;
#X obj 36 76 route seed bang;
#X obj 96 101 t b;
#X obj 130 51 inlet;
#X text 11 8 random without duplicate numbers \, retriguering base
on urn object cyclone lib;
#X msg 176 148 clear \, bang;
#X obj 203 345 outlet;
#X obj 176 198 t b b;
#X obj 95 341 outlet;
#X obj 136 236 !=;
#X obj 96 199 t a a a;
#X obj 96 282 spigot;
#X obj 163 283 sel 0;
#X obj 136 258 t a a;
#X obj 17 311 t b;
#X obj 20 144 t b;
#X connect 0 0 3 0;
#X connect 1 0 2 0;
#X connect 2 0 12 0;
#X connect 2 1 9 0;
#X connect 3 0 1 0;
#X connect 3 1 4 0;
#X connect 4 0 2 0;
#X connect 5 0 2 1;
#X connect 7 0 2 0;
#X connect 9 0 7 0;
#X connect 9 1 8 0;
#X connect 11 0 15 0;
#X connect 12 0 13 0;
#X connect 12 1 11 1;
#X connect 12 2 11 0;
#X connect 13 0 10 0;
#X connect 14 0 16 0;
#X connect 15 0 13 1;
#X connect 15 1 14 0;
#X connect 16 0 17 0;
#X connect 17 0 2 0;
