#N canvas 777 142 450 300 10;
#X obj 21 216 dac~ 1 2;
#X obj 297 4 loadbang;
#X obj 296 37 del 125;
#X msg 231 115 1;
#X msg 247 176 \; pd dsp \$1;
#X obj 44 169 readsf~ 2;
#X obj 240 65 t b b;
#X obj 240 33 bng 15 250 50 0 empty empty empty 17 7 0 10 -262144 -1
-1;
#X msg 130 201 1;
#X obj 131 172 t b;
#X msg 34 64 open son.wav \, 1;
#X connect 1 0 2 0;
#X connect 2 0 6 0;
#X connect 3 0 4 0;
#X connect 5 0 0 0;
#X connect 5 1 0 1;
#X connect 5 2 9 0;
#X connect 6 0 10 0;
#X connect 6 1 3 0;
#X connect 7 0 2 0;
#X connect 8 0 5 0;
#X connect 9 0 8 0;
#X connect 10 0 5 0;
