#N canvas 777 142 450 300 10;
#X obj 55 236 dac~ 1 2;
#X obj 297 4 loadbang;
#X obj 296 37 del 125;
#X msg 231 115 1;
#X msg 247 176 \; pd dsp \$1;
#X obj 53 202 readsf~ 2;
#X obj 240 65 t b b;
#X obj 240 33 bng 15 250 50 0 empty empty empty 17 7 0 10 -262144 -1
-1;
#X obj -1 2 pd-osc/oReceive 8000;
#X obj 14 30 route /gpioOSC;
#X obj 38 141 spigot;
#X msg 172 113 0;
#X msg 135 28 1;
#X obj 14 73 t b b;
#X msg 169 59 1;
#X msg 39 112 open spawn.wav \, 1;
#X msg 139 174 1;
#X connect 1 0 2 0;
#X connect 2 0 6 0;
#X connect 3 0 4 0;
#X connect 5 0 0 0;
#X connect 5 1 0 1;
#X connect 5 2 16 0;
#X connect 6 1 3 0;
#X connect 7 0 2 0;
#X connect 8 0 9 0;
#X connect 9 0 13 0;
#X connect 10 0 5 0;
#X connect 11 0 10 1;
#X connect 12 0 13 0;
#X connect 13 0 11 0;
#X connect 13 1 15 0;
#X connect 15 0 10 0;
#X connect 16 0 10 1;
