#N canvas 144 350 450 300 10;
#X obj 25 31 tgl 15 0 empty empty empty 17 7 0 10 -262144 -1 -1 1 1
;
#X msg 20 66 /ecouteur \$1;
#X obj 20 95 pd-osc/oSend 10.0.0.101 8000;
#X obj 137 27 tgl 15 0 empty empty empty 17 7 0 10 -262144 -1 -1 0
1;
#X msg 136 67 /detecte \$1;
#X connect 0 0 1 0;
#X connect 1 0 2 0;
#X connect 3 0 4 0;
#X connect 4 0 2 0;
