#N canvas 0 22 450 300 10;
#X obj 24 217 list split 1;
#X obj 24 134 until;
#X obj 24 172 list append;
#X obj 24 39 inlet;
#X obj 26 76 t b l b;
#X obj 23 270 +;
#X obj 79 285 f;
#X msg 166 172 0;
#X obj 102 170 t b b;
#X obj 174 336 f;
#X msg 110 29 1 2 23 3 3;
#X obj 224 364 outlet;
#X connect 0 0 5 0;
#X connect 0 1 2 1;
#X connect 0 2 8 0;
#X connect 1 0 2 0;
#X connect 2 0 0 0;
#X connect 3 0 4 0;
#X connect 4 0 1 0;
#X connect 4 1 2 1;
#X connect 4 2 7 0;
#X connect 5 0 6 0;
#X connect 5 0 9 1;
#X connect 6 0 5 1;
#X connect 7 0 5 1;
#X connect 8 0 9 0;
#X connect 8 1 1 1;
#X connect 9 0 11 0;
#X connect 10 0 4 0;
