#N canvas 513 292 927 719 10;
#X obj 10 563 throw~ chan1;
#X obj 38 538 throw~ chan2;
#X obj 9 306 readsf~ 2;
#X obj 5 107 list;
#X obj 5 81 t b a;
#X obj 80 306 t b;
#X obj 6 177 list trim;
#X obj 6 156 list prepend open;
#X obj 70 477 line~;
#X obj 38 508 *~;
#X obj 10 509 *~;
#X text 576 496 init;
#X obj 71 451 pack;
#X obj 71 399 f;
#X obj 4 6 bng 15 250 50 0 empty \$1.shuffle \$1.shuffle 17 7 0 10
-262144 -1 -1;
#X msg 47 276 1;
#X obj 46 246 t b b;
#X obj 47 220 r \$1.play;
#X obj 139 308 send \$1.ended;
#X obj 98 398 r \$1.normal.vol;
#X obj 96 431 r \$1.normal.fadetime;
#X obj 374 445 pack;
#X obj 374 382 f;
#X obj 374 360 bng 15 250 50 0 empty \$1.cut \$1.cut 17 7 0 10 -262144
-1 -1;
#X obj 401 383 r \$1.cut.vol;
#X obj 395 412 r \$1.cut.fadetime;
#X obj 512 451 pack;
#X obj 512 384 f;
#X obj 512 361 bng 15 250 50 0 empty \$1.fadeout \$1.fadeout 17 7 0
10 -262144 -1 -1;
#X obj 539 385 r \$1.fadeout.vol;
#X obj 533 414 r \$1.fadeout.fadetime;
#X obj 284 93 r \$1.replay;
#X obj 284 118 t b b;
#X obj 85 360 bng 15 250 50 0 empty \$1.normal \$1.normal 17 7 0 10
-262144 -1 -1;
#X obj 225 394 f;
#X obj 252 393 r \$1.normal.vol;
#X obj 239 355 bng 15 250 50 0 empty \$1.fadein \$1.fadein 17 7 0 10
-262144 -1 -1;
#X obj 226 451 pack;
#X obj 239 429 r \$1.fadein.fadetime;
#X msg 139 282 1;
#N canvas 779 131 453 476 shuffle 0;
#X obj 26 39 inlet;
#X obj 25 397 outlet;
#X obj 255 260 makefilename _%d;
#X obj 80 146 list;
#X obj 81 168 list trim;
#X obj 82 302 combine;
#X obj 42 199 r lieu.path;
#X obj 32 225 list;
#X obj 32 247 list trim;
#X obj 31 101 t b b b;
#X obj 31 302 combine;
#X obj 255 235 + 1;
#X obj 101 100 r \$1.filename;
#X obj 254 47 r \$1.count;
#X obj 255 207 urn/urnJb 10;
#X obj 32 274 combine path /de/;
#X obj 200 297 combine text .wav;
#X obj 254 82 sel 1;
#X obj 205 164 spigot;
#X obj 255 163 spigot;
#X obj 206 122 t a a;
#X obj 293 108 t a b b;
#X msg 342 136 1;
#X msg 312 136 0;
#X obj 253 109 t b b;
#X msg 248 134 1;
#X msg 277 134 0;
#X msg 338 45 1;
#X msg 392 52 12;
#X msg 200 225 _1;
#X obj 131 209 r \$1.path;
#X connect 0 0 9 0;
#X connect 2 0 16 0;
#X connect 3 0 4 0;
#X connect 4 0 5 0;
#X connect 5 0 10 1;
#X connect 6 0 7 1;
#X connect 7 0 8 0;
#X connect 8 0 15 0;
#X connect 9 0 7 0;
#X connect 9 1 3 0;
#X connect 9 2 20 0;
#X connect 10 0 1 0;
#X connect 11 0 2 0;
#X connect 12 0 3 1;
#X connect 13 0 17 0;
#X connect 14 0 11 0;
#X connect 15 0 10 0;
#X connect 16 0 5 1;
#X connect 17 0 24 0;
#X connect 17 1 21 0;
#X connect 18 0 29 0;
#X connect 19 0 14 0;
#X connect 20 0 18 0;
#X connect 20 1 19 0;
#X connect 21 0 14 1;
#X connect 21 1 23 0;
#X connect 21 2 22 0;
#X connect 22 0 19 1;
#X connect 23 0 18 1;
#X connect 24 0 25 0;
#X connect 25 0 18 1;
#X connect 26 0 19 1;
#X connect 27 0 17 0;
#X connect 28 0 17 0;
#X connect 29 0 16 0;
#X connect 30 0 15 1;
#X restore 4 48 pd shuffle;
#X obj 159 3 bng 15 250 50 0 empty \$1.next \$1.next 17 7 0 10 -262144
-1 -1;
#X obj 23 133 send \$1.cue;
#N canvas 779 131 453 476 next 0;
#X obj 26 39 inlet;
#X obj 25 397 outlet;
#X obj 255 260 makefilename _%d;
#X obj 80 146 list;
#X obj 81 168 list trim;
#X obj 82 302 combine;
#X obj 42 199 r lieu.path;
#X obj 32 225 list;
#X obj 32 247 list trim;
#X obj 31 101 t b b b;
#X obj 31 302 combine;
#X obj 255 235 + 1;
#X obj 101 100 r \$1.filename;
#X obj 254 47 r \$1.count;
#X obj 32 274 combine path /de/;
#X obj 200 297 combine text .wav;
#X obj 254 82 sel 1;
#X obj 205 164 spigot;
#X obj 255 163 spigot;
#X obj 206 122 t a a;
#X obj 293 108 t a b b;
#X msg 342 136 1;
#X msg 312 136 0;
#X obj 253 109 t b b;
#X msg 248 134 1;
#X msg 277 134 0;
#X msg 338 45 1;
#X msg 392 52 12;
#X msg 200 225 _1;
#X obj 131 209 r \$1.path;
#N canvas 0 22 450 300 conte 0;
#X obj 43 7 inlet;
#X obj 45 273 outlet;
#X obj 197 14 inlet;
#X obj 41 57 t b;
#X obj 107 117 + 1;
#X obj 40 97 f 0;
#X obj 109 172 >=;
#X obj 109 204 sel 1;
#X msg 109 241 0;
#X obj 40 152 t a a;
#X msg 266 126 4;
#X obj 101 26 bng 15 250 50 0 empty empty empty 17 7 0 10 -262144 -1
-1;
#X obj 306 17 inlet;
#X msg 260 68 0;
#X obj 235 43 t b b;
#X obj 320 58 bng 15 250 50 0 empty empty empty 17 7 0 10 -262144 -1
-1;
#X obj 186 100 - 1;
#X connect 0 0 3 0;
#X connect 2 0 16 0;
#X connect 3 0 5 0;
#X connect 4 0 5 1;
#X connect 5 0 9 0;
#X connect 6 0 7 0;
#X connect 7 0 8 0;
#X connect 8 0 5 1;
#X connect 9 0 6 0;
#X connect 9 0 1 0;
#X connect 9 1 4 0;
#X connect 10 0 6 1;
#X connect 11 0 3 0;
#X connect 12 0 14 0;
#X connect 13 0 5 1;
#X connect 14 0 3 0;
#X connect 14 1 13 0;
#X connect 15 0 14 0;
#X connect 16 0 6 1;
#X restore 255 207 pd conte;
#X obj 406 107 inlet;
#X connect 0 0 9 0;
#X connect 2 0 15 0;
#X connect 3 0 4 0;
#X connect 4 0 5 0;
#X connect 5 0 10 1;
#X connect 6 0 7 1;
#X connect 7 0 8 0;
#X connect 8 0 14 0;
#X connect 9 0 7 0;
#X connect 9 1 3 0;
#X connect 9 2 19 0;
#X connect 10 0 1 0;
#X connect 11 0 2 0;
#X connect 12 0 3 1;
#X connect 13 0 16 0;
#X connect 14 0 10 0;
#X connect 15 0 5 1;
#X connect 16 0 23 0;
#X connect 16 1 20 0;
#X connect 17 0 28 0;
#X connect 18 0 30 0;
#X connect 19 0 17 0;
#X connect 19 1 18 0;
#X connect 20 0 30 1;
#X connect 20 1 22 0;
#X connect 20 2 21 0;
#X connect 21 0 18 1;
#X connect 22 0 17 1;
#X connect 23 0 24 0;
#X connect 24 0 17 1;
#X connect 25 0 18 1;
#X connect 26 0 16 0;
#X connect 27 0 16 0;
#X connect 28 0 15 0;
#X connect 29 0 14 1;
#X connect 30 0 11 0;
#X connect 31 0 30 2;
#X restore 144 57 pd next;
#X obj 248 29 r \$1.next.reset;
#X obj 220 61 bng 15 250 50 0 empty empty empty 17 7 0 10 -262144 -1
-1;
#X connect 2 0 10 0;
#X connect 2 1 9 0;
#X connect 2 2 5 0;
#X connect 3 0 7 0;
#X connect 3 0 42 0;
#X connect 4 0 3 0;
#X connect 4 1 3 1;
#X connect 5 0 39 0;
#X connect 6 0 2 0;
#X connect 7 0 6 0;
#X connect 8 0 9 1;
#X connect 8 0 10 1;
#X connect 9 0 1 0;
#X connect 10 0 0 0;
#X connect 12 0 8 0;
#X connect 13 0 12 0;
#X connect 14 0 40 0;
#X connect 15 0 2 0;
#X connect 16 0 15 0;
#X connect 16 1 13 0;
#X connect 17 0 16 0;
#X connect 19 0 13 1;
#X connect 20 0 12 1;
#X connect 21 0 8 0;
#X connect 22 0 21 0;
#X connect 23 0 22 0;
#X connect 24 0 22 1;
#X connect 25 0 21 1;
#X connect 26 0 8 0;
#X connect 27 0 26 0;
#X connect 28 0 27 0;
#X connect 29 0 27 1;
#X connect 30 0 26 1;
#X connect 31 0 32 0;
#X connect 32 0 15 0;
#X connect 32 1 3 0;
#X connect 33 0 13 0;
#X connect 34 0 37 0;
#X connect 35 0 34 1;
#X connect 36 0 34 0;
#X connect 37 0 8 0;
#X connect 38 0 37 1;
#X connect 39 0 18 0;
#X connect 40 0 4 0;
#X connect 41 0 43 0;
#X connect 43 0 4 0;
#X connect 44 0 43 1;
#X connect 45 0 43 1;
