#N canvas 728 133 524 553 10;
#X obj 10 679 throw~ chan1;
#X obj 38 654 throw~ chan2;
#X obj 9 486 readsf~ 2;
#X obj 5 287 list;
#X obj 5 261 t b a;
#X obj 80 486 t b;
#X obj 5 329 list trim;
#X obj 5 308 list prepend open;
#X obj 68 594 line~;
#X obj 38 624 *~;
#X obj 10 625 *~;
#X text 446 626 init;
#X obj 70 549 pack;
#X obj 71 526 f;
#X obj 169 228 combine . extention;
#X obj 170 202 t b a;
#X obj 120 121 list-urn 10;
#X obj 5 4 bng 15 250 50 0 empty \$1.shuffle \$1.shuffle 17 7 0 10
-262144 -1 -1;
#X msg 120 98 1;
#X obj 120 169 makefilename _%d;
#X obj 119 228 combine;
#X obj 54 72 list;
#X obj 55 94 list trim;
#X obj 56 228 combine;
#X obj 16 125 r lieu.path;
#X obj 6 151 list;
#X obj 6 173 list trim;
#X obj 5 27 t b b b;
#X obj 5 228 combine;
#X obj 120 144 + 1;
#X obj 5 195 combine path /ci/;
#X msg 47 456 1;
#X msg 70 573 0 \, \$1 \$2;
#X obj 46 426 t b b;
#X obj 75 26 r \$1.filename;
#X obj 181 98 r \$1.count;
#X obj 211 202 r \$1.audioextention;
#X obj 135 277 print \$1 cue;
#X obj 47 400 r \$1.play;
#X obj 110 487 send \$1.ended;
#X obj 101 526 r \$1.normal.vol;
#X obj 105 548 r \$1.normal.fadetime;
#X connect 2 0 10 0;
#X connect 2 1 9 0;
#X connect 2 2 5 0;
#X connect 3 0 7 0;
#X connect 4 0 3 0;
#X connect 4 1 3 1;
#X connect 5 0 39 0;
#X connect 6 0 2 0;
#X connect 7 0 6 0;
#X connect 8 0 9 1;
#X connect 8 0 10 1;
#X connect 9 0 1 0;
#X connect 10 0 0 0;
#X connect 12 0 32 0;
#X connect 13 0 12 0;
#X connect 14 0 20 1;
#X connect 15 0 14 0;
#X connect 15 1 14 1;
#X connect 16 0 29 0;
#X connect 17 0 27 0;
#X connect 18 0 16 0;
#X connect 19 0 20 0;
#X connect 20 0 23 1;
#X connect 21 0 22 0;
#X connect 22 0 23 0;
#X connect 23 0 28 1;
#X connect 24 0 25 1;
#X connect 25 0 26 0;
#X connect 26 0 30 0;
#X connect 27 0 25 0;
#X connect 27 1 21 0;
#X connect 27 2 18 0;
#X connect 28 0 4 0;
#X connect 28 0 37 0;
#X connect 29 0 19 0;
#X connect 30 0 28 0;
#X connect 31 0 2 0;
#X connect 32 0 8 0;
#X connect 33 0 31 0;
#X connect 33 1 13 0;
#X connect 34 0 21 1;
#X connect 35 0 16 1;
#X connect 36 0 15 0;
#X connect 38 0 33 0;
#X connect 40 0 13 1;
#X connect 41 0 12 1;
