#N canvas 0 22 450 300 10;
#X obj 83 97 sel \$1;
#X obj 85 43 r state;
#X msg 84 176 1;
#X msg 134 174 0;
#X obj 135 128 t b;
#X obj 83 128 t b;
#X obj 84 227 outlet;
#X obj 82 71 symbol;
#X obj 83 151 del 1;
#X obj 134 151 del 1;
#X connect 0 0 5 0;
#X connect 0 1 4 0;
#X connect 1 0 7 0;
#X connect 2 0 6 0;
#X connect 3 0 6 0;
#X connect 4 0 9 0;
#X connect 5 0 8 0;
#X connect 7 0 0 0;
#X connect 8 0 2 0;
#X connect 9 0 3 0;
