#N canvas 536 121 683 719 10;
#X obj 159 242 +;
#X msg 160 182 1;
#X obj 195 241 i;
#X obj 121 346 >=;
#X obj 121 376 sel 1;
#X obj 119 406 t b b;
#X msg 79 433 0;
#X obj 126 151 metro 1000;
#X obj 179 408 t b;
#X msg 96 183 0;
#X obj 43 13 r \$1.timer;
#X obj 151 316 r \$1.timer.time;
#X msg 182 462 \; \$1.timer.ended 0;
#X msg 119 501 \; \$1.timer.ended 1;
#X msg 375 160 \; \$1.timer.ended 0;
#X obj 376 131 symbol \$1;
#X obj 153 13 bng 15 250 50 0 empty empty empty 17 7 0 10 -262144 -1
-1;
#X obj 179 434 symbol \$1;
#X obj 119 436 symbol \$1;
#X obj 64 103 t a a b b b;
#X obj 219 146 t b;
#X obj 219 173 random 1000;
#X obj 220 242 scale 0 1000 0 1000;
#X obj 332 213 r \$1.timer.max;
#X obj 302 194 r \$1.timer.min;
#X obj 220 267 s \$1.timer.time;
#X obj 41 49 sel 0 1;
#X msg 64 72 1;
#X msg 10 134 0;
#X obj 11 106 t a b;
#X connect 0 0 2 0;
#X connect 0 0 3 0;
#X connect 1 0 0 0;
#X connect 2 0 0 1;
#X connect 3 0 4 0;
#X connect 4 0 5 0;
#X connect 4 1 8 0;
#X connect 5 0 18 0;
#X connect 5 1 6 0;
#X connect 6 0 7 0;
#X connect 7 0 1 0;
#X connect 8 0 17 0;
#X connect 9 0 0 1;
#X connect 10 0 26 0;
#X connect 11 0 3 1;
#X connect 15 0 14 0;
#X connect 16 0 19 0;
#X connect 17 0 12 0;
#X connect 18 0 13 0;
#X connect 19 1 7 0;
#X connect 19 2 9 0;
#X connect 19 3 20 0;
#X connect 19 4 15 0;
#X connect 20 0 21 0;
#X connect 21 0 22 0;
#X connect 22 0 25 0;
#X connect 23 0 22 4;
#X connect 24 0 22 3;
#X connect 26 0 29 0;
#X connect 26 1 27 0;
#X connect 27 0 19 0;
#X connect 28 0 7 0;
#X connect 29 0 28 0;
