#N canvas 0 22 544 589 10;
#X obj 38 99 inlet;
#X obj 74 99 inlet;
#X obj 123 99 inlet;
#X obj 172 99 inlet;
#X obj 221 99 inlet;
#X obj 76 243 outlet;
#X obj 91 167 -;
#X obj 76 186 / 0;
#X obj 189 167 -;
#X obj 76 205 * 0;
#X obj 76 224 + 0;
#X obj 38 166 +;
#X obj 53 147 * -1;
#X text 180 401 rtr (range to range): scale a stream of numbers from
a known range to a different range.;
#X obj 108 32 loadbang;
#X obj 74 118 f \$1;
#X obj 123 118 f \$2;
#X obj 172 118 f \$3;
#X obj 222 118 f \$4;
#X obj 107 58 t b b b b;
#X connect 0 0 11 0;
#X connect 1 0 15 0;
#X connect 2 0 16 0;
#X connect 3 0 17 0;
#X connect 4 0 18 0;
#X connect 6 0 7 1;
#X connect 7 0 9 0;
#X connect 8 0 9 1;
#X connect 9 0 10 0;
#X connect 10 0 5 0;
#X connect 11 0 7 0;
#X connect 12 0 11 1;
#X connect 14 0 19 0;
#X connect 15 0 6 1;
#X connect 15 0 12 0;
#X connect 16 0 6 0;
#X connect 17 0 8 1;
#X connect 17 0 10 1;
#X connect 18 0 8 0;
#X connect 19 0 16 0;
#X connect 19 1 15 0;
#X connect 19 2 18 0;
#X connect 19 3 17 0;
